<?xml version="1.0" standalone="no"?>
<svg viewBox="0 0 200 200" xmlns="http://www.w3.org/2000/svg">
  <path fill="#AFEDC5" d="M35.2,-56.1C48.7,-46.2,64.8,-41.6,68.4,-31.8C72,-22,63.1,-7.1,61.5,9.3C59.8,25.7,65.4,43.6,59.9,54.1C54.3,64.6,37.5,67.7,21.6,71.5C5.6,75.2,-9.5,79.7,-22.9,76.4C-36.2,73.2,-47.7,62.2,-58.2,50.3C-68.7,38.4,-78.3,25.5,-81.8,10.9C-85.3,-3.7,-82.6,-20.1,-74.3,-32C-65.9,-43.9,-51.8,-51.3,-38.5,-61.3C-25.2,-71.4,-12.6,-83.9,-0.9,-82.6C10.9,-81.3,21.8,-66,35.2,-56.1Z" transform="translate(100 100)" />
</svg>
